<?xml version="1.0" encoding="UTF-8"?><svg id="Layer_1" xmlns="http://www.w3.org/2000/svg" viewBox="0 0 256 144"><defs><style>.cls-1{fill:#0a7af5;}</style></defs><g id="Layer_1-2"><g><path class="cls-1" d="M201.51,47.27c-1.2,.21-2.47,1.2-3.04,2.38-.48,.96-.51,2.52-.05,3.52,.36,.8,1.42,1.85,2.26,2.23,.93,.41,2.39,.38,3.37-.06,2.98-1.38,3.4-5.3,.79-7.3-.9-.69-2.17-.98-3.32-.77h0Z"/><path class="cls-1" d="M45.13,48.36c-2.52,.25-5.17,.91-7.26,1.81-1.42,.61-2.72,1.32-2.24,1.23,2.38-.48,6.72-.56,9.04-.18,1.36,.23,1.37,.23,1.65-.03,1.33-1.24,3.73-.54,4.08,1.2,.06,.32,.18,.42,.72,.61,.37,.13,1.48,.62,2.48,1.1l1.82,.87,.82-.41c1.56-.77,3.26-.46,4.4,.81,.74,.82,1,1.64,.91,2.83l-.06,.91,1.61,1.64c.87,.9,1.89,2.01,2.23,2.48,.56,.79,.66,.86,1.06,.86,1.22,0,2.29,1.11,2.29,2.37,0,.38-.09,.87-.19,1.13-.18,.42-.16,.48,.3,1.55,1.03,2.33,1.72,4.73,2.05,7.12l.16,1.2,.18-.82c.09-.46,.2-1.98,.24-3.38,.05-2.06,.03-2.88-.15-4.12-1.57-11.02-10.43-19.59-21.49-20.75-1.13-.11-3.71-.14-4.68-.04h0Z"/><path class="cls-1" d="M37.46,53.15c-1.84,.26-3.6,.66-5.33,1.22-1.51,.48-1.53,.49-2.34,1.34-2.53,2.65-4.4,5.74-5.55,9.22-3.01,9.07-.41,19.02,6.72,25.57,.58,.53,1.1,.98,1.15,.98,.06,0,.1-5.95,.1-13.24v-13.24h7.6v5.26l.38-.69c1.33-2.41,3.95-4.41,6.78-5.16,1.33-.36,4.8-.33,6.21,.06,3.7,1,6.37,3.53,7.61,7.21,.78,2.33,.81,2.71,.81,12.02v8.41l.36-.24c2.31-1.66,5.04-4.85,6.69-7.82l.48-.89v-2.34c0-2.43-.14-3.91-.56-5.94-.29-1.36-1.06-3.75-1.62-4.99-.37-.8-.42-.85-.81-.85-1.7-.01-2.88-2.03-2.08-3.56,.16-.32,.14-.38-.49-1.2-.77-1.03-2.47-2.86-2.98-3.22l-.36-.25-.67,.34c-.56,.29-.83,.36-1.63,.36-1.59-.01-2.72-.75-3.38-2.18-.26-.58-.32-.84-.26-1.65l.05-.96-1.78-.86c-2.57-1.23-2.56-1.23-3.16-.82-1.27,.85-2.9,.43-3.53-.91-.15-.33-.29-.62-.3-.65-.03-.04-.48-.14-1.03-.23-1.51-.25-5.55-.32-7.06-.1h0Z"/><path class="cls-1" d="M97.07,60.43c-2.06,.44-3.56,1.2-5.03,2.6l-.93,.87v-1.39c0-.9-.05-1.43-.15-1.53-.16-.16-5.33-.23-5.73-.08-.18,.08-.2,1.43-.2,14.06,0,13.69,0,13.99,.24,14.11,.38,.19,5.36,.16,5.63-.04,.19-.14,.21-.91,.25-8.51,.04-8.27,.04-8.37,.33-9.31,.89-2.94,2.53-4.59,5.1-5.12,3.65-.75,6.36,.77,7.2,4.04,.24,.95,.25,1.41,.25,9.83,0,7.87,.03,8.86,.2,9.03,.16,.18,.59,.2,2.79,.2,1.56,0,2.7-.05,2.85-.13,.24-.13,.24-.38,.24-9.93,0-8.41-.03-9.96-.2-10.86-.66-3.46-2.68-6.08-5.64-7.28-1.96-.8-4.97-1.04-7.21-.57h0Z"/><path class="cls-1" d="M127.19,60.37c-4.36,.74-8.37,3.61-10.52,7.55-1.9,3.46-2.31,7.92-1.09,11.66,1.66,5.07,5.84,8.79,11.17,9.94,1.27,.28,3.73,.37,5.05,.19,8.18-1.09,13.76-8.03,13-16.19-.61-6.61-5.66-12.01-12.32-13.15-1.36-.23-3.94-.23-5.31,0h0Zm5.17,5.84c1.94,.52,3.8,1.93,4.79,3.6,1.01,1.75,1.49,4.23,1.24,6.4-.52,4.45-3.21,7.3-7.36,7.8-3.5,.42-6.74-1.06-8.42-3.88-1.34-2.26-1.66-5.7-.76-8.51,.98-3.08,3.4-5.12,6.72-5.66,.7-.1,3.03,.04,3.8,.25h0Z"/><path class="cls-1" d="M161.55,60.37c-1.81,.37-3.9,1.47-5.26,2.75l-.94,.9v-1.46c0-.95-.05-1.49-.15-1.6-.16-.16-4.96-.23-5.35-.08-.18,.08-.2,1.43-.2,14.06,0,13.69,0,13.99,.24,14.11,.32,.16,5.32,.16,5.59,0,.16-.1,.2-1.24,.25-8.58,.08-8.34,.08-8.47,.37-9.41,.84-2.76,2.49-4.45,4.9-5.02,1.01-.24,2.58-.18,3.45,.13,1.73,.62,2.74,2.18,3.05,4.76,.09,.66,.14,4.33,.14,9.46,0,7.45,.03,8.4,.2,8.58,.16,.18,.61,.2,2.88,.2,1.48,0,2.78-.06,2.88-.13,.16-.1,.19-1.2,.21-8.51,.03-8.97,.04-9.2,.67-10.91,.36-.93,1.15-2.13,1.71-2.55,1.14-.87,2.86-1.31,4.69-1.18,2.47,.18,3.86,1.34,4.59,3.83,.19,.69,.23,1.73,.29,9.98,.05,8.01,.09,9.24,.25,9.34,.26,.16,5.27,.16,5.59,0,.24-.13,.24-.37,.24-9.29,0-9.58-.04-10.42-.59-12.44-.94-3.46-3.36-5.92-6.69-6.79-1.46-.38-4.1-.47-5.53-.18-2.48,.49-4.8,1.86-6.11,3.61l-.56,.74-.56-.76c-1.2-1.66-2.86-2.84-4.8-3.4-1.22-.36-4.18-.47-5.46-.19h0Z"/><path class="cls-1" d="M219.88,60.37c-2.08,.38-4.32,1.39-5.59,2.55-.99,.89-1.98,2.36-2.32,3.45s-.46,3.08-.24,4.31c.28,1.65,1.38,3.41,2.72,4.33,1.46,1,3.12,1.61,6.53,2.41,2.98,.69,3.99,1.1,4.86,1.98,.69,.69,.89,1.65,.53,2.5-.24,.58-1.24,1.43-2.05,1.72-1.56,.59-3.98,.61-5.46,.04-.76-.29-1.93-1.08-3.08-2.06-.48-.41-.94-.75-1.01-.75s-1.08,.77-2.22,1.72c-1.57,1.31-2.09,1.8-2.09,2.01,0,.41,2.09,2.57,3.14,3.28,1.95,1.29,4.65,1.98,7.75,1.98,7.34,0,11.97-3.84,11.62-9.63-.14-2.14-.76-3.58-2.14-4.97-1.46-1.44-3.6-2.34-7.51-3.16-1.04-.21-2.31-.56-2.81-.76-.96-.41-1.95-1.18-2.26-1.77-.28-.52-.24-1.61,.06-2.11,.36-.57,1.27-1.11,2.29-1.34,2.36-.54,4.47,.06,6.2,1.77,.39,.38,.81,.69,.94,.69,.37,0,4.51-3.16,4.51-3.42,0-.36-1.26-1.89-2.08-2.55-1.34-1.09-3.13-1.84-5.25-2.21-1.29-.23-3.8-.23-5.05,0h0Z"/><path class="cls-1" d="M199.48,60.91c-.13,.05-.16,2.98-.16,14.04,0,13.71,0,14,.24,14.13,.15,.08,1.29,.13,2.85,.13,2.19,0,2.62-.03,2.79-.2,.18-.18,.2-1.61,.2-13.94,0-9.24-.04-13.84-.13-14-.13-.23-.29-.24-2.89-.23-1.51,0-2.83,.04-2.9,.08h0Z"/><path class="cls-1" d="M45.86,71.03c-2.15,.52-3.97,2.15-4.84,4.37-.77,1.95-.75,1.66-.8,11.42l-.05,8.96,.53,.14c4.1,1.1,7.94,1.16,12.5,.18l.41-.09v-8.63c0-8.58-.08-10.6-.44-12.05-.59-2.31-2.11-3.94-4.09-4.36-.89-.19-2.32-.16-3.22,.06h0Z"/></g></g></svg>