<?xml version="1.0" encoding="UTF-8"?> <svg xmlns="http://www.w3.org/2000/svg" id="Layer_1" viewBox="0 0 256 144"><defs><style>.cls-1{fill:#1800ff;}</style></defs><path class="cls-1" d="m228.51,94.85l-12.24-20.22h-18.7v20.22l-6.94-.07v-45.69l29.18.07c5.19,0,9.01,1.02,11.38,3.03,2.35,1.99,3.54,5.25,3.54,9.71,0,6.82-3.37,10.73-10.29,11.99l-.29.05v.66l12.45,20.27h-8.08v-.02Zm-30.95-26.29h23.19c2.6,0,4.54-.54,5.78-1.62,1.26-1.09,1.89-2.79,1.89-5.08s-.63-4-1.89-5.07c-1.24-1.05-3.18-1.6-5.78-1.6h-23.19v13.37Z"></path><path class="cls-1" d="m71.17,71.86c0-6.99-2.35-12.6-7.11-16.9-4.76-4.3-11.04-6.46-18.74-6.46s-13.98,2.16-18.74,6.46c-4.76,4.3-7.18,9.93-7.18,16.9s2.41,12.67,7.18,17.04c4.76,4.37,11.04,6.6,18.74,6.6,6.17,0,11.44-1.45,15.75-4.3l3.66,3.66h7.87l-7.38-7.16c3.96-4.2,5.97-9.47,5.97-15.83h-.02Zm-25.85,17.29c-6.85,0-11.68-1.31-14.49-3.91-2.81-2.62-4.25-7.06-4.25-13.38s1.43-10.64,4.25-13.2c2.81-2.55,7.63-3.86,14.49-3.86s11.68,1.31,14.49,3.86c2.81,2.55,4.18,6.99,4.18,13.2,0,5.24-.95,9.18-2.86,11.87l-3.79-3.67h-7.4l7.06,7.06c-2.84,1.36-6.73,2.04-11.68,2.04Z"></path><path class="cls-1" d="m115.25,77.75c0,3.98-1.04,6.92-3.13,8.69-2.16,1.82-5.93,2.74-11.36,2.74-10.76,0-14.49-3.4-14.49-11.43v-28.6h-6.92v27.41c0,12.46,7.77,18.93,21.41,18.93s21.41-6.46,21.41-18.93v-27.41h-6.92s0,28.6,0,28.6Z"></path><path class="cls-1" d="m174.97,54.96c-4.76-4.3-11.04-6.46-18.74-6.46s-13.98,2.16-18.74,6.46c-4.76,4.3-7.18,9.93-7.18,16.9s2.41,12.67,7.18,17.04c4.76,4.37,11.04,6.6,18.74,6.6s13.91-2.23,18.67-6.6c4.76-4.37,7.18-10.05,7.18-17.04s-2.35-12.6-7.11-16.9Zm-4.25,30.28c-2.81,2.62-7.63,3.91-14.49,3.91s-11.68-1.31-14.49-3.91c-2.81-2.62-4.25-7.06-4.25-13.38s1.43-10.64,4.25-13.2c2.81-2.55,7.63-3.86,14.49-3.86s11.68,1.31,14.49,3.86c2.81,2.55,4.18,6.99,4.18,13.2s-1.38,10.76-4.18,13.38Z"></path></svg> 