<?xml version="1.0" encoding="UTF-8"?><svg id="Layer_1" xmlns="http://www.w3.org/2000/svg" viewBox="0 0 256 144"><defs><style>.cls-1{fill:#be3a34;}</style></defs><path class="cls-1" d="M179.5,89.23h-6.8l-12.32-27.01-11.79,27.01h-6.84l15.5-34.45h6.36l15.9,34.45h0Zm-75.59-24.39c-.08-6.04-5.07-10.26-12.16-10.26h-15.25v34.62h5.55v-29.54h9.38c3.14,0,6.52,1.57,6.56,5.27,.04,3.3-2.58,5.39-6.96,5.55h-.08l-3.38,.04,11.19,18.72h6.56s-5.39-9.06-8.77-14.73c5.03-1.77,7.41-5.68,7.37-9.66h0Zm21.98,3.94c-5.84-1.57-8.13-2.9-8.13-5.55,0-4.07,5.23-4.47,7.08-4.47,2.94,0,6.68,.93,8.9,2.01l2.33-4.39c-2.98-1.49-7.57-2.46-11.39-2.46-8.13,0-13.24,3.54-13.24,9.58,0,6.88,7.2,8.86,12.8,10.34,5.84,1.57,7.85,3.34,7.85,6,0,4.47-4.75,5.15-7.73,5.15-4.07,0-7.41-1.09-10.67-2.98l-2.78,4.51c4.11,2.42,8.37,3.54,13.44,3.54,8.41,0,14.05-4.15,14.05-10.59,0-7.16-6.8-9.14-12.52-10.71h0Z"/><path class="cls-1" d="M172.9,56.14c0,.2-.04,.4-.12,.56-.08,.16-.16,.32-.28,.44-.12,.12-.24,.2-.44,.28-.16,.08-.32,.08-.48,.08-.2,0-.36-.04-.52-.12-.16-.08-.32-.16-.4-.28-.08-.12-.2-.28-.28-.44-.08-.16-.08-.36-.08-.52,0-.2,.04-.4,.12-.56,.08-.16,.16-.32,.28-.44s.28-.2,.44-.28c.16-.08,.32-.08,.52-.08s.36,.04,.48,.08c.16,.08,.32,.16,.44,.28s.2,.28,.28,.44c.08,.16,.04,.36,.04,.56h0Zm-.28,0c0-.16-.04-.32-.08-.44-.04-.12-.12-.24-.24-.36-.08-.08-.2-.16-.32-.24-.12-.04-.24-.08-.4-.08s-.28,.04-.4,.08-.24,.12-.32,.24c-.08,.08-.16,.2-.24,.36-.08,.16-.08,.28-.08,.44s.04,.28,.08,.44c.04,.16,.12,.24,.2,.36,.08,.08,.2,.16,.32,.24,.12,.04,.28,.08,.44,.08s.28-.04,.4-.08,.24-.12,.32-.24c.08-.08,.16-.2,.24-.36s.08-.24,.08-.44h0Zm-1.33,.81h-.24v-1.53h.56c.16,0,.32,.04,.4,.08,.08,.08,.12,.16,.12,.32,0,.12-.04,.24-.12,.28s-.16,.08-.28,.12l.4,.64h-.28l-.4-.64h-.24l.08,.72h0Zm.28-.85h.12s.08,0,.12-.04c.04,0,.04-.04,.08-.08s.04-.08,.04-.12,0-.08-.04-.12-.04-.04-.08-.08-.08-.04-.12-.04h-.4v.44s.28,.04,.28,.04Z"/></svg>