<?xml version="1.0" encoding="UTF-8"?><svg id="Layer_1" xmlns="http://www.w3.org/2000/svg" viewBox="0 0 256 144"><defs><style>.cls-1{fill:#fff;}.cls-2{fill:#7e828c;}.cls-3{fill:#5569b1;}</style></defs><path class="cls-3" d="M61.61,50.83H24.68c-.93,0-1.68,.75-1.68,1.68v38.98c0,.93,.75,1.68,1.68,1.68H61.61c.93,0,1.68-.75,1.68-1.68V52.51c0-.93-.75-1.68-1.68-1.68h0Z"/><polygon class="cls-1" points="52.17 62.76 46.23 62.76 46.23 81.72 52.17 81.72 52.17 86.14 34.94 86.14 34.94 81.72 40.88 81.72 40.88 62.76 34.94 62.76 34.94 58.39 52.17 58.39 52.17 62.76 52.17 62.76"/><path class="cls-2" d="M88.54,67.01h-3.64c-.69-2.39-2.18-3.58-4.09-3.58-.5-.02-.99,.06-1.46,.23-.47,.17-.89,.44-1.26,.78-.35,.34-.62,.75-.8,1.21-.18,.46-.26,.94-.25,1.44-.04,.47,.03,.95,.2,1.39,.17,.44,.44,.84,.78,1.16,.99,.73,2.12,1.25,3.31,1.51,.31,.09,.62,.17,.94,.23,1.01,.24,2.01,.54,2.98,.92,.83,.37,1.59,.88,2.24,1.51,.77,.74,1.37,1.63,1.76,2.63,.39,.99,.57,2.06,.52,3.13,0,1.14-.23,2.27-.69,3.31-.4,1-1.01,1.91-1.78,2.66-.77,.75-1.69,1.32-2.7,1.68-.92,.38-1.9,.57-2.9,.57-2,0-3.93-.74-5.43-2.09v1.51h-3.34v-8.01h3.79c.05,1.25,.59,2.43,1.49,3.28,.89,.82,2.06,1.25,3.27,1.21,.6,.02,1.19-.08,1.74-.3,.55-.22,1.06-.55,1.48-.98,.41-.4,.74-.88,.96-1.42,.22-.53,.33-1.11,.33-1.68,.04-.52-.05-1.05-.25-1.53-.2-.48-.52-.91-.91-1.24-1.19-.7-2.49-1.21-3.83-1.51l-.97-.27c-.96-.21-1.89-.49-2.81-.85-.76-.36-1.44-.88-1.98-1.53-.63-.67-1.13-1.45-1.46-2.31-.33-.86-.48-1.78-.45-2.71-.01-1.01,.18-2,.55-2.93,.35-.9,.85-1.72,1.49-2.43,.66-.66,1.45-1.17,2.31-1.51,.89-.38,1.84-.57,2.81-.56,1.77,.05,3.47,.69,4.85,1.81v-1.36h3.13l.04,6.64h0Z"/><path class="cls-2" d="M108.77,85.64c-1.72,1.31-3.82,2.02-5.97,2.01-1.35,0-2.68-.28-3.92-.79-1.24-.58-2.36-1.37-3.33-2.34-1.93-2.03-3-4.74-2.98-7.56,0-1.38,.26-2.76,.78-4.04,.52-1.3,1.29-2.49,2.25-3.49,.96-1.02,2.12-1.83,3.4-2.37,1.28-.54,2.67-.81,4.06-.78,1.12-.08,2.24,.12,3.25,.59,1.02,.47,1.91,1.19,2.58,2.1v-2.22h3.13v6.83h-3.4c-.52-1.12-1.35-2.06-2.38-2.72-1.03-.66-2.22-1.01-3.44-1.01-.87,0-1.74,.18-2.54,.54-.8,.36-1.52,.87-2.12,1.51-.64,.66-1.14,1.44-1.49,2.3-.35,.86-.52,1.79-.51,2.72,0,.95,.16,1.9,.51,2.78,.32,.84,.8,1.61,1.42,2.25,.61,.64,1.33,1.15,2.13,1.51,.8,.37,1.66,.56,2.54,.56,1.18,.01,2.33-.33,3.31-.98,1.01-.72,1.84-1.67,2.43-2.77h4.07c-.63,2.15-1.93,4.03-3.72,5.35"/><path class="cls-2" d="M117.56,60.37h3.51v4.42h-3.55l.04-4.42h0Zm0,9.86h-2.75v-3.48h6.25v16.86h2.66v3.51h-8.95v-3.51h2.82l-.03-13.38h0Z"/><path class="cls-2" d="M128.98,70.23h-2.99v-3.48h2.99v-.53c0-4.28,2.1-6.38,6.34-6.38h.24v3.63h-.87c-.3-.01-.59,.03-.87,.14-.28,.11-.53,.27-.74,.48-.21,.23-.37,.5-.48,.8-.11,.3-.15,.61-.13,.93v.94h3.09v3.48h-3.12v13.38h2.98v3.51h-9.55v-3.51h3.1v-13.38h0Z"/><path class="cls-2" d="M142.15,79.71c.35,.85,.85,1.62,1.49,2.27,.58,.65,1.28,1.17,2.07,1.51,.8,.36,1.67,.55,2.55,.54,.87,0,1.74-.18,2.54-.54,.8-.35,1.51-.87,2.1-1.51,.64-.65,1.15-1.42,1.49-2.27,.35-.88,.53-1.83,.52-2.78,0-.93-.18-1.85-.52-2.71-.34-.86-.85-1.64-1.49-2.3-.6-.64-1.31-1.15-2.1-1.51-.8-.36-1.66-.55-2.54-.54-.88,0-1.75,.18-2.55,.54-.78,.36-1.49,.87-2.07,1.51-1.24,1.36-1.92,3.15-1.91,5.01-.01,.95,.15,1.9,.49,2.78m-3.49-6.82c.53-1.3,1.3-2.49,2.27-3.49,.94-1,2.07-1.8,3.33-2.34,1.22-.54,2.54-.81,3.87-.8,1.35,0,2.69,.27,3.94,.8,1.26,.53,2.39,1.33,3.31,2.34,.97,.99,1.74,2.18,2.25,3.48,1.02,2.62,1.02,5.54,0,8.17-.51,1.3-1.28,2.48-2.25,3.48-.93,1-2.05,1.8-3.3,2.34-1.25,.54-2.59,.81-3.95,.79-1.33,0-2.64-.27-3.87-.79-1.24-.57-2.37-1.37-3.33-2.34-.97-1-1.74-2.19-2.27-3.49-1.03-2.61-1.03-5.52,0-8.14h0Z"/><path class="cls-2" d="M163.77,70.23h-2.64v-3.48h5.97v3.21c.48-1.06,1.23-1.96,2.18-2.62,.99-.6,2.12-.92,3.27-.94v4.2c-.75-.07-1.51,.05-2.21,.34-.7,.29-1.32,.74-1.82,1.31-.98,1.46-1.43,3.22-1.3,4.97v6.38h2.67v3.51h-8.95v-3.51h2.76l.07-13.38h0Z"/><path class="cls-2" d="M174.94,83.61h2.81v-13.38h-2.75v-3.48h6.07v3.02c.57-1.01,1.34-1.88,2.27-2.57,.9-.54,1.93-.83,2.98-.82,1.29-.03,2.56,.35,3.63,1.09,1.07,.73,1.89,1.79,2.34,3.01,.69-1.23,1.63-2.29,2.75-3.13,.98-.66,2.15-1,3.33-.97,.96-.04,1.92,.17,2.79,.59,.87,.42,1.63,1.05,2.21,1.83,1.38,1.97,2.05,4.36,1.9,6.77v8.01h2.8v3.51h-8.95v-3.49h2.61v-7.03c.12-1.73-.17-3.46-.86-5.05-.34-.54-.83-.98-1.4-1.26-.57-.28-1.21-.4-1.85-.34-.64,0-1.28,.17-1.84,.48-.56,.32-1.03,.78-1.37,1.33-.87,1.51-1.28,3.25-1.18,4.99v6.96h2.75v3.51h-8.95v-3.58h2.75v-7.03c.11-1.74-.21-3.47-.94-5.05-.34-.55-.83-.99-1.4-1.27-.57-.28-1.22-.4-1.85-.33-.65-.02-1.29,.14-1.85,.46-.56,.32-1.03,.79-1.36,1.36-.87,1.51-1.28,3.25-1.18,4.99v6.96h2.61v3.51h-8.85v-3.58h0Z"/><path class="cls-2" d="M225,71.88c-.9-.97-2.08-1.64-3.38-1.91-1.29-.27-2.64-.13-3.85,.4-.79,.36-1.51,.88-2.1,1.51-.65,.65-1.16,1.43-1.49,2.3-.33,.86-.5,1.78-.51,2.71,0,.95,.17,1.89,.51,2.78,.34,.85,.84,1.63,1.49,2.27,.59,.65,1.31,1.16,2.1,1.51,.8,.36,1.66,.55,2.54,.54,.88,.02,1.75-.15,2.55-.5,.81-.35,1.53-.86,2.13-1.51,1.26-1.38,1.92-3.22,1.85-5.1,.06-1.86-.61-3.68-1.85-5.05m8,11.78v3.51h-6.18v-2.57c-.81,.98-1.83,1.76-2.99,2.28-1.15,.52-2.41,.78-3.67,.74-1.32,.01-2.63-.25-3.85-.77-1.22-.52-2.31-1.29-3.23-2.26-.98-1-1.75-2.19-2.27-3.49-1.01-2.61-1.01-5.52,0-8.14,.52-1.31,1.29-2.49,2.27-3.49,.92-.98,2.02-1.76,3.24-2.3,1.28-.5,2.64-.75,4.01-.73,1.23-.02,2.46,.22,3.6,.7,1.1,.51,2.08,1.27,2.83,2.22v-2.57h6.22v3.48h-2.72v13.38h2.72Z"/></svg>