<?xml version="1.0" encoding="UTF-8"?> <svg xmlns="http://www.w3.org/2000/svg" id="Layer_1" data-name="Layer 1" viewBox="0 0 256 144"><defs><style> .cls-1 { fill: #008323; } .cls-2 { fill: #404040; } </style></defs><g id="logo"><path id="surveymonkey" class="cls-2" d="m64.3,80.18l1.9-2.27c1.73,1.49,3.45,2.34,5.7,2.34,1.96,0,3.2-.9,3.2-2.27h0c0-1.27-.71-1.96-3.99-2.72-3.77-.91-5.88-2.02-5.88-5.28v-.07c0-3.01,2.51-5.1,6-5.1,2.33-.05,4.58.73,6.37,2.21l-1.65,2.34c-1.58-1.18-3.16-1.82-4.77-1.82-1.82,0-2.86.91-2.86,2.09v.04c0,1.39.81,1.99,4.23,2.8,3.77.93,5.76,2.29,5.76,5.25v-.03c0,3.37-2.65,5.38-6.45,5.38-2.8.01-5.49-1.02-7.56-2.9Zm16.03-2.32v-8.47h3.09v7.59c0,2.07,1.03,3.26,2.84,3.26s2.99-1.24,2.99-3.31v-7.54h3.09v13.32h-3.09v-1.38c-1.07,1.14-2.61,1.76-4.18,1.65-3.01,0-4.75-2.02-4.75-5.13h0Zm15.23-8.47h3.09v2.27c.84-2.04,2.39-2.63,4.76-2.53v2.77h-.18c-2.69,0-4.58,1.83-4.58,5.93v4.9h-3.09v-13.32h0Zm8.91,0h3.28l3.59,9.29,3.64-9.29h3.21l-5.5,13.44h-2.75l-5.47-13.44h0Zm13.69,6.7v-.38c0-3.63,2.93-6.64,6.56-6.63,4.23.02,6.39,3.35,6.39,7.19,0,.29-.02.56-.05.86h-9.81c.33,2.18,1.87,3.39,3.84,3.39,1.38,0,2.69-.57,3.62-1.59l1.8,1.59c-1.33,1.64-3.34,2.57-5.46,2.51-3.9,0-6.89-2.81-6.89-6.94Zm9.92-.99c-.2-1.97-1.38-3.52-3.39-3.52-1.87,0-3.21,1.44-3.47,3.52h6.86Zm38.85,1.07v-.05c.08-3.93,3.35-7.05,7.29-6.97,3.8.08,6.86,3.12,6.98,6.91v.05c-.01,3.85-3.16,6.97-7.02,6.96h-.14c-3.81.1-6.99-2.91-7.09-6.73l-.02-.17h0Zm11.18,0v-.05c0-2.35-1.7-4.29-4.09-4.29s-4,1.92-4,4.23v.05c0,2.32,1.7,4.29,4.06,4.29s4.03-1.95,4.03-4.23h0Zm20.22-11.89h3.09v11.05l5.48-5.93h3.72l-5.29,5.44,5.51,7.88h-3.55l-4.02-5.73-1.85,1.95v3.78h-3.21l.12-18.42v-.02Zm12.25,11.81v-.38c0-3.71,3.04-6.73,6.75-6.63,4.1.11,6.21,3.41,6.21,7.18,0,.29-.02.56-.05.86h-9.81c.33,2.18,1.87,3.39,3.84,3.39,1.38,0,2.69-.57,3.62-1.59l1.8,1.59c-1.33,1.64-3.34,2.57-5.46,2.51-3.9-.01-6.89-2.82-6.89-6.94Zm9.87-.99c-.2-1.97-1.38-3.52-3.39-3.52-1.87,0-3.19,1.44-3.47,3.52h6.86Zm-78.58-5.71l-3.71,9.13-3.68-9.13h-3.2l5.27,13.08-2.75,6.79h3.2l8.06-19.87h-3.18Zm92.36,0l-3.71,9.13-3.68-9.13h-3.2l5.28,13.08-2.75,6.79h3.2l8.06-19.87h-3.2Zm7.68.18c.33.19.59.45.79.79s.29.7.29,1.11-.1.79-.3,1.12-.46.61-.8.8-.7.3-1.12.3-.77-.1-1.11-.3c-.33-.19-.59-.46-.79-.8s-.29-.7-.29-1.11.1-.77.29-1.11.45-.61.8-.8c.33-.19.71-.3,1.12-.3s.79.11,1.12.3h0Zm-.19,3.52c.27-.17.5-.39.67-.68s.24-.59.24-.94-.08-.65-.24-.94-.38-.5-.65-.67-.59-.24-.94-.24-.67.08-.94.25c-.27.17-.5.38-.67.67-.15.29-.24.59-.24.94s.08.65.24.94.38.5.65.67c.27.17.59.25.94.25s.65-.08.94-.25h0Zm.07-1.51c-.08.13-.2.23-.37.3l.55.84h-.53l-.46-.71h-.53v.71h-.59v-2.5h1.03c.32.05.57.12.76.28.19.15.27.36.27.62.01.18-.04.33-.12.46h0Zm-.9-.05c.17,0,.3-.03.39-.11s.14-.17.14-.31-.05-.23-.14-.31c-.09-.07-.22-.1-.39-.1h-.44v.83h.44Zm-45.77,2.71v8.47h-2.97v-7.59c0-2.07-1.03-3.26-2.84-3.26s-2.99,1.24-2.99,3.31v7.54h-3.09v-13.32h2.97v1.38c1.07-1.14,2.61-1.76,4.18-1.65,3,.02,4.75,2.02,4.75,5.13h0Zm-39.11-.25l5.4-9.01h3.38v17.73h-3.09v-12.61l-5.61,8.92h-.08l-5.61-8.92v12.61h-3.09v-17.73h3.27l5.44,9.01"></path><path id="symbol" class="cls-1" d="m52.68,72.6c-.42,0-.83.08-1.25.15-1.59-6.25-6.65-10.94-12.94-12.06-.27-.07-.56-.07-.83-.14.07-1.52.14-3.33,2.43-4.91l-.43-.89s-4.43,1.38-4.91,5.19c-.2-1.03-2.28-2.36-3.32-2.56l-.49.83c.9.56,1.52,1.52,1.67,2.56-6.38,1.11-11.42,5.82-13.01,12.05-2.84-.69-5.75,1.03-6.44,3.88-.69,2.84,1.03,5.75,3.88,6.44,1.11.27,2.21.2,3.26-.2.49,1.11,1.03,2.21,1.72,3.19l4.43-2.97-.07-.07c-1.25-1.72-1.94-3.81-2.01-5.89-.14-2.43.49-4.85,2.01-6.23,3.19-2.7,6.65-1.45,8.86,1.07h.56c2.14-2.59,5.6-3.77,8.86-1.07,1.52,1.38,2.14,3.81,2.01,6.23-.07,2.14-.76,4.15-2.01,5.89l-.07.07,4.43,2.97c.69-.96,1.25-2.08,1.72-3.19,2.7,1.03,5.82-.27,6.85-2.97,1.03-2.7-.27-5.82-2.97-6.85-.62-.34-1.32-.49-1.94-.49h.01Zm-34.49,6.93c-.83-.07-1.52-.76-1.45-1.67.07-.83.69-1.45,1.45-1.52.34,0,.62.07.9.27,0,.83.07,1.67.14,2.5-.29.27-.63.42-1.05.42h0Zm34.56,0c-.42,0-.76-.14-1.03-.42.07-.83.14-1.67.14-2.5.69-.49,1.67-.27,2.14.42.2.27.27.56.27.9.06.89-.7,1.59-1.52,1.59h0Z"></path></g></svg> 