<?xml version="1.0" encoding="UTF-8"?> <svg xmlns="http://www.w3.org/2000/svg" id="Layer_1" data-name="Layer 1" viewBox="0 0 290 185"><defs><style> .cls-1 { fill: #08cf65; } </style></defs><path d="m162.76,107.24h8.2v-12.37c0-7.48,6.42-7.34,9.78-6.78v-8.4c-5.48-.48-8.74,1.05-10.21,4.02h-.17l.04-3.97h-7.68v27.49h.04Z"></path><path d="m204.26,107.24h4.94l8.23-10.36,6.96,10.36h9.28l-10.94-15.91,9.58-11.58h-9.34l-10.89,13.75h-.17l.09-27.49h-7.72v41.24Z"></path><path d="m114.26,107.24h6.17l9.45-17.66,9.15,17.66h6.26l14.05-27.49h-9.32l-8.62,17.53-8.18-17.53h-6.7l-8.62,17.62-8.18-17.62h-9.32l13.87,27.49Z"></path><path d="m191.56,75.88c2.71,0,4.9-2.19,4.9-4.9s-2.2-4.9-4.9-4.9-4.9,2.19-4.9,4.9,2.19,4.9,4.9,4.9Z"></path><path d="m195.4,79.75h-7.94v27.49h7.94v-27.49Z"></path><path class="cls-1" d="m32.28,82.19c3.81,0,5.6.7,8.36,3.45l14.79,14.78c.44.44.53.61.61.87.04.09.04.22.04.31s0,.22-.04.31c-.09.26-.18.44-.61.87l-10.11,10.14c-.44.44-.61.52-.88.61-.09.04-.22.04-.31.04s-.22,0-.31-.04c-.26-.09-.44-.18-.88-.61l-28.67-28.64c-.83-.83-.53-2.1.88-2.1h17.11Z"></path><path class="cls-1" d="m74.12,64.21c-3.81,0-5.6.7-8.36,3.45l-14.79,14.78c-.44.44-.53.61-.61.87-.04.09-.04.22-.04.31s0,.22.04.31c.09.26.18.44.61.87l10.11,10.1c.44.44.61.52.88.61.09.04.22.04.31.04s.22,0,.31-.04c.26-.09.44-.18.88-.61l28.67-28.64c.83-.83.53-2.1-.88-2.1h-17.11v.04Z"></path><path d="m256.13,98.26c-.96,1.44-2.98,3.24-6.35,3.24-3.94,0-6.74-2.27-7.35-5.55h21.4v-2.19c0-7.96-5.73-14.34-14.22-14.34s-14.75,6.3-14.75,14.34,6.3,14.34,14.75,14.34c6.3,0,10.11-2.49,12.56-5.68l-6.04-4.15Zm-7.06-12.71c3.63,0,6.17,2.01,7.05,4.9h-14.14c.88-2.89,3.37-4.9,7.09-4.9Z"></path></svg> 